<svg xmlns="http://www.w3.org/2000/svg" xmlns:xlink="http://www.w3.org/1999/xlink" viewBox="0 0 1080 1080" width="1080" height="1080" preserveAspectRatio="xMidYMid meet" style="width: 100%; height: 100%; transform: translate3d(0px, 0px, 0px); content-visibility: visible;"><defs><clipPath id="__lottie_element_18"><rect width="1080" height="1080" x="0" y="0"></rect></clipPath></defs><g clip-path="url(#__lottie_element_18)"><g transform="matrix(1,0,0,1,540,277.62078857421875)" opacity="0.06396158746431936" style="display: block;"><g opacity="1" transform="matrix(1,0,0,1,0,0)"><path stroke-linecap="round" stroke-linejoin="miter" fill-opacity="0" stroke-miterlimit="4" stroke="rgb(4,76,208)" stroke-opacity="1" stroke-width="8" d=" M-538.5,-253.5 C-352.5,-253.5 -326.96600341796875,-142 -194,-142 C-68,-142 13.58899974822998,-347.2640075683594 153.14199829101562,-347.2640075683594 C254,-347.2640075683594 355.5,-218 535.5,-318"></path></g></g><g transform="matrix(1,0,0,1,540,323.4796142578125)" opacity="0.1175280088498883" style="display: block;"><g opacity="1" transform="matrix(1,0,0,1,0,0)"><path stroke-linecap="round" stroke-linejoin="miter" fill-opacity="0" stroke-miterlimit="4" stroke="rgb(4,76,208)" stroke-opacity="1" stroke-width="8" d=" M-538.5,-253.5 C-352.5,-253.5 -326.96600341796875,-142 -194,-142 C-68,-142 13.58899974822998,-347.2640075683594 153.14199829101562,-347.2640075683594 C254,-347.2640075683594 355.5,-218 535.5,-318"></path></g></g><g transform="matrix(1,0,0,1,540,372.76025390625)" opacity="0.20237944884926706" style="display: block;"><g opacity="1" transform="matrix(1,0,0,1,0,0)"><path stroke-linecap="round" stroke-linejoin="miter" fill-opacity="0" stroke-miterlimit="4" stroke="rgb(4,76,208)" stroke-opacity="1" stroke-width="8" d=" M-538.5,-253.5 C-352.5,-253.5 -326.96600341796875,-142 -194,-142 C-68,-142 13.58899974822998,-347.2640075683594 153.14199829101562,-347.2640075683594 C254,-347.2640075683594 355.5,-218 535.5,-318"></path></g></g><g style="display: block;" transform="matrix(1,0,0,1,540,424.8038330078125)" opacity="0.31249237300316024"><g opacity="1" transform="matrix(1,0,0,1,0,0)"><path stroke-linecap="round" stroke-linejoin="miter" fill-opacity="0" stroke-miterlimit="4" stroke="rgb(4,76,208)" stroke-opacity="1" stroke-width="8" d=" M-538.5,-253.5 C-352.5,-253.5 -326.96600341796875,-142 -194,-142 C-68,-142 13.58899974822998,-347.2640075683594 153.14199829101562,-347.2640075683594 C254,-347.2640075683594 355.5,-218 535.5,-318"></path></g></g><g style="display: block;" transform="matrix(1,0,0,1,540,478.23272705078125)" opacity="0.43527056836450856"><g opacity="1" transform="matrix(1,0,0,1,0,0)"><path stroke-linecap="round" stroke-linejoin="miter" fill-opacity="0" stroke-miterlimit="4" stroke="rgb(4,76,208)" stroke-opacity="1" stroke-width="8" d=" M-538.5,-253.5 C-352.5,-253.5 -326.96600341796875,-142 -194,-142 C-68,-142 13.58899974822998,-347.2640075683594 153.14199829101562,-347.2640075683594 C254,-347.2640075683594 355.5,-218 535.5,-318"></path></g></g><g transform="matrix(1,0,0,1,540,531.468017578125)" opacity="0.55627930956027" style="display: block;"><g opacity="1" transform="matrix(1,0,0,1,0,0)"><path stroke-linecap="round" stroke-linejoin="miter" fill-opacity="0" stroke-miterlimit="4" stroke="rgb(4,76,208)" stroke-opacity="1" stroke-width="8" d=" M-538.5,-253.5 C-352.5,-253.5 -326.96600341796875,-142 -194,-142 C-68,-142 13.58899974822998,-347.2640075683594 153.14199829101562,-347.2640075683594 C254,-347.2640075683594 355.5,-218 535.5,-318"></path></g></g><g style="display: block;" transform="matrix(1,0,0,1,540,583.405029296875)" opacity="0.6654176784406294"><g opacity="1" transform="matrix(1,0,0,1,0,0)"><path stroke-linecap="round" stroke-linejoin="miter" fill-opacity="0" stroke-miterlimit="4" stroke="rgb(4,76,208)" stroke-opacity="1" stroke-width="8" d=" M-538.5,-253.5 C-352.5,-253.5 -326.96600341796875,-142 -194,-142 C-68,-142 13.58899974822998,-347.2640075683594 153.14199829101562,-347.2640075683594 C254,-347.2640075683594 355.5,-218 535.5,-318"></path></g></g><g style="display: block;" transform="matrix(1,0,0,1,540,633.5398559570312)" opacity="0.7580786017856755"><g opacity="1" transform="matrix(1,0,0,1,0,0)"><path stroke-linecap="round" stroke-linejoin="miter" fill-opacity="0" stroke-miterlimit="4" stroke="rgb(4,76,208)" stroke-opacity="1" stroke-width="8" d=" M-538.5,-253.5 C-352.5,-253.5 -326.96600341796875,-142 -194,-142 C-68,-142 13.58899974822998,-347.2640075683594 153.14199829101562,-347.2640075683594 C254,-347.2640075683594 355.5,-218 535.5,-318"></path></g></g><g style="display: block;" transform="matrix(1,0,0,1,540,681.7681884765625)" opacity="0.8333093312419017"><g opacity="1" transform="matrix(1,0,0,1,0,0)"><path stroke-linecap="round" stroke-linejoin="miter" fill-opacity="0" stroke-miterlimit="4" stroke="rgb(4,76,208)" stroke-opacity="1" stroke-width="8" d=" M-538.5,-253.5 C-352.5,-253.5 -326.96600341796875,-142 -194,-142 C-68,-142 13.58899974822998,-347.2640075683594 153.14199829101562,-347.2640075683594 C254,-347.2640075683594 355.5,-218 535.5,-318"></path></g></g><g style="display: block;" transform="matrix(1,0,0,1,540,728.2101440429688)" opacity="0.8922067881576782"><g opacity="1" transform="matrix(1,0,0,1,0,0)"><path stroke-linecap="round" stroke-linejoin="miter" fill-opacity="0" stroke-miterlimit="4" stroke="rgb(4,76,208)" stroke-opacity="1" stroke-width="8" d=" M-538.5,-253.5 C-352.5,-253.5 -326.96600341796875,-142 -194,-142 C-68,-142 13.58899974822998,-347.2640075683594 153.14199829101562,-347.2640075683594 C254,-347.2640075683594 355.5,-218 535.5,-318"></path></g></g><g style="display: block;" transform="matrix(1,0,0,1,540,773.0521850585938)" opacity="0.9364768534198846"><g opacity="1" transform="matrix(1,0,0,1,0,0)"><path stroke-linecap="round" stroke-linejoin="miter" fill-opacity="0" stroke-miterlimit="4" stroke="rgb(4,76,208)" stroke-opacity="1" stroke-width="8" d=" M-538.5,-253.5 C-352.5,-253.5 -326.96600341796875,-142 -194,-142 C-68,-142 13.58899974822998,-347.2640075683594 153.14199829101562,-347.2640075683594 C254,-347.2640075683594 355.5,-218 535.5,-318"></path></g></g><g style="display: block;" transform="matrix(1,0,0,1,540,816.4805297851562)" opacity="0.9678220632144517"><g opacity="1" transform="matrix(1,0,0,1,0,0)"><path stroke-linecap="round" stroke-linejoin="miter" fill-opacity="0" stroke-miterlimit="4" stroke="rgb(4,76,208)" stroke-opacity="1" stroke-width="8" d=" M-538.5,-253.5 C-352.5,-253.5 -326.96600341796875,-142 -194,-142 C-68,-142 13.58899974822998,-347.2640075683594 153.14199829101562,-347.2640075683594 C254,-347.2640075683594 355.5,-218 535.5,-318"></path></g></g><g style="display: block;" transform="matrix(1,0,0,1,540,858.6754760742188)" opacity="0.9878901868559651"><g opacity="1" transform="matrix(1,0,0,1,0,0)"><path stroke-linecap="round" stroke-linejoin="miter" fill-opacity="0" stroke-miterlimit="4" stroke="rgb(4,76,208)" stroke-opacity="1" stroke-width="8" d=" M-538.5,-253.5 C-352.5,-253.5 -326.96600341796875,-142 -194,-142 C-68,-142 13.58899974822998,-347.2640075683594 153.14199829101562,-347.2640075683594 C254,-347.2640075683594 355.5,-218 535.5,-318"></path></g></g><g style="display: block;" transform="matrix(1,0,0,1,540,899.7911376953125)" opacity="0.9980902621852531"><g opacity="1" transform="matrix(1,0,0,1,0,0)"><path stroke-linecap="round" stroke-linejoin="miter" fill-opacity="0" stroke-miterlimit="4" stroke="rgb(4,76,208)" stroke-opacity="1" stroke-width="8" d=" M-538.5,-253.5 C-352.5,-253.5 -326.96600341796875,-142 -194,-142 C-68,-142 13.58899974822998,-347.2640075683594 153.14199829101562,-347.2640075683594 C254,-347.2640075683594 355.5,-218 535.5,-318"></path></g></g><g style="display: block;" transform="matrix(1,0,0,1,540,940.0336303710938)" opacity="0.9995792770750995"><g opacity="1" transform="matrix(1,0,0,1,0,0)"><path stroke-linecap="round" stroke-linejoin="miter" fill-opacity="0" stroke-miterlimit="4" stroke="rgb(4,76,208)" stroke-opacity="1" stroke-width="8" d=" M-538.5,-253.5 C-352.5,-253.5 -326.96600341796875,-142 -194,-142 C-68,-142 13.58899974822998,-347.2640075683594 153.14199829101562,-347.2640075683594 C254,-347.2640075683594 355.5,-218 535.5,-318"></path></g></g><g style="display: block;" transform="matrix(1,0,0,1,540,980.6071166992188)" opacity="0.9924112513418407"><g opacity="1" transform="matrix(1,0,0,1,0,0)"><path stroke-linecap="round" stroke-linejoin="miter" fill-opacity="0" stroke-miterlimit="4" stroke="rgb(4,76,208)" stroke-opacity="1" stroke-width="8" d=" M-538.5,-253.5 C-352.5,-253.5 -326.96600341796875,-142 -194,-142 C-68,-142 13.58899974822998,-347.2640075683594 153.14199829101562,-347.2640075683594 C254,-347.2640075683594 355.5,-218 535.5,-318"></path></g></g><g style="display: block;" transform="matrix(1,0,0,1,540,1021.9657592773438)" opacity="0.975427628551474"><g opacity="1" transform="matrix(1,0,0,1,0,0)"><path stroke-linecap="round" stroke-linejoin="miter" fill-opacity="0" stroke-miterlimit="4" stroke="rgb(4,76,208)" stroke-opacity="1" stroke-width="8" d=" M-538.5,-253.5 C-352.5,-253.5 -326.96600341796875,-142 -194,-142 C-68,-142 13.58899974822998,-347.2640075683594 153.14199829101562,-347.2640075683594 C254,-347.2640075683594 355.5,-218 535.5,-318"></path></g></g><g style="display: block;" transform="matrix(1,0,0,1,540,1064.218505859375)" opacity="0.9472676857832051"><g opacity="1" transform="matrix(1,0,0,1,0,0)"><path stroke-linecap="round" stroke-linejoin="miter" fill-opacity="0" stroke-miterlimit="4" stroke="rgb(4,76,208)" stroke-opacity="1" stroke-width="8" d=" M-538.5,-253.5 C-352.5,-253.5 -326.96600341796875,-142 -194,-142 C-68,-142 13.58899974822998,-347.2640075683594 153.14199829101562,-347.2640075683594 C254,-347.2640075683594 355.5,-218 535.5,-318"></path></g></g><g style="display: block;" transform="matrix(1,0,0,1,540,1107.494384765625)" opacity="0.9063191350890942"><g opacity="1" transform="matrix(1,0,0,1,0,0)"><path stroke-linecap="round" stroke-linejoin="miter" fill-opacity="0" stroke-miterlimit="4" stroke="rgb(4,76,208)" stroke-opacity="1" stroke-width="8" d=" M-538.5,-253.5 C-352.5,-253.5 -326.96600341796875,-142 -194,-142 C-68,-142 13.58899974822998,-347.2640075683594 153.14199829101562,-347.2640075683594 C254,-347.2640075683594 355.5,-218 535.5,-318"></path></g></g><g style="display: block;" transform="matrix(1,0,0,1,540,1151.940185546875)" opacity="0.8507478301661074"><g opacity="1" transform="matrix(1,0,0,1,0,0)"><path stroke-linecap="round" stroke-linejoin="miter" fill-opacity="0" stroke-miterlimit="4" stroke="rgb(4,76,208)" stroke-opacity="1" stroke-width="8" d=" M-538.5,-253.5 C-352.5,-253.5 -326.96600341796875,-142 -194,-142 C-68,-142 13.58899974822998,-347.2640075683594 153.14199829101562,-347.2640075683594 C254,-347.2640075683594 355.5,-218 535.5,-318"></path></g></g><g style="display: block;" transform="matrix(1,0,0,1,540,1197.696044921875)" opacity="0.778800352997605"><g opacity="1" transform="matrix(1,0,0,1,0,0)"><path stroke-linecap="round" stroke-linejoin="miter" fill-opacity="0" stroke-miterlimit="4" stroke="rgb(4,76,208)" stroke-opacity="1" stroke-width="8" d=" M-538.5,-253.5 C-352.5,-253.5 -326.96600341796875,-142 -194,-142 C-68,-142 13.58899974822998,-347.2640075683594 153.14199829101562,-347.2640075683594 C254,-347.2640075683594 355.5,-218 535.5,-318"></path></g></g></g></svg>